<svg xmlns="http://www.w3.org/2000/svg" xmlns:xlink="http://www.w3.org/1999/xlink" viewBox="0 0 680 470">
<defs>
<filter id="glow" x="-20%" y="-20%" width="140%" height="140%">
<feGaussianBlur stdDeviation="1.6" result="b"></feGaussianBlur>
<feMerge><feMergeNode in="b"></feMergeNode><feMergeNode in="SourceGraphic"></feMergeNode></feMerge>
</filter>
<filter id="glowsoft" x="-40%" y="-40%" width="180%" height="180%">
<feGaussianBlur stdDeviation="3.5" result="b"></feGaussianBlur>
<feMerge><feMergeNode in="b"></feMergeNode><feMergeNode in="SourceGraphic"></feMergeNode></feMerge>
</filter>
<pattern id="dots" width="20" height="20" patternUnits="userSpaceOnUse">
<circle cx="10" cy="10" r="0.9" fill="#0e2c31"></circle>
</pattern>
</defs>
<rect x="0" y="0" width="680" height="470" fill="#060f22"></rect>
<rect x="0" y="0" width="680" height="470" fill="url(#dots)"></rect>
<g filter="url(#glowsoft)" stroke="#1de2ff" fill="none" stroke-linecap="round" stroke-linejoin="round">
<path d="M272 176C276 134 304 112 326 106" stroke-width="1.4"></path>
<path d="M408 176C404 134 376 112 354 106" stroke-width="1.4"></path>
<path d="M266 270L340 246L414 270Z" stroke-width="1.3"></path>
<path d="M223 256H270M410 256H457M223 256V358M457 256V358" stroke-width="1.1"></path>
<path d="M20 262H223M20 262V358M20 270H223" stroke-width="1.1"></path>
<path d="M457 262H660M660 262V358M457 270H660" stroke-width="1.1"></path>
<path d="M14 358H666" stroke-width="1.4"></path>
<path d="M316 358L220 440M364 358L460 440" stroke-width="1"></path>
<path d="M286 330L244 358M394 330L436 358" stroke-width="1"></path>
<rect x="266" y="176" width="148" height="8" stroke-width="1"></rect>
<rect x="264" y="184" width="152" height="6" stroke-width="1"></rect>
<rect x="268" y="190" width="144" height="38" stroke-width="1"></rect>
<rect x="264" y="228" width="152" height="6" stroke-width="1"></rect>
<rect x="260" y="234" width="160" height="18" stroke-width="1"></rect>
<rect x="262" y="270" width="156" height="4" stroke-width="1"></rect>
<rect x="320" y="102" width="40" height="6" stroke-width="1"></rect>
<rect x="326" y="78" width="28" height="24" stroke-width="1"></rect>
<path d="M326 78Q340 66 354 78" stroke-width="1"></path>
<circle cx="340" cy="42" r="3" stroke-width="0.8"></circle>
<path d="M340 45V62M334 51H346" stroke-width="0.8"></path>
<rect x="336" y="62" width="8" height="8" stroke-width="0.8"></rect>
</g>
<g filter="url(#glow)" stroke="#33dcc6" fill="none" stroke-linecap="round" stroke-linejoin="round" stroke-width="0.6">
<path d="M331 78V102M336 78V102M340 78V102M344 78V102M349 78V102" stroke-width="0.5"></path>
<path d="M295 176C297 140 314 116 330 107"></path>
<path d="M385 176C383 140 366 116 350 107"></path>
<path d="M317 176C318 138 328 114 337 107"></path>
<path d="M363 176C362 138 352 114 343 107"></path>
<path d="M340 176V108"></path>
<path d="M281 152Q340 138 399 152"></path>
<path d="M291 130Q340 118 389 130"></path>
<path d="M278 176V184M290 176V184M302 176V184M314 176V184M326 176V184M338 176V184M350 176V184M362 176V184M374 176V184M386 176V184M398 176V184" stroke-width="0.5"></path>
<path d="M281 190V228M290 190V228M299 190V228M308 190V228M317 190V228M326 190V228M335 190V228M344 190V228M353 190V228M362 190V228M371 190V228M380 190V228M389 190V228M398 190V228"></path>
<rect x="268" y="238" width="6" height="10" stroke-width="0.5"></rect>
<rect x="286" y="238" width="6" height="10" stroke-width="0.5"></rect>
<rect x="304" y="238" width="6" height="10" stroke-width="0.5"></rect>
<rect x="322" y="238" width="6" height="10" stroke-width="0.5"></rect>
<rect x="352" y="238" width="6" height="10" stroke-width="0.5"></rect>
<rect x="370" y="238" width="6" height="10" stroke-width="0.5"></rect>
<rect x="388" y="238" width="6" height="10" stroke-width="0.5"></rect>
<rect x="406" y="238" width="6" height="10" stroke-width="0.5"></rect>
<path d="M309 256H371M291 262H389" stroke-width="0.5"></path>
<path d="M272 274V330M276 274V330M291 274V330M295 274V330M310 274V330M314 274V330M329 274V330M333 274V330M347 274V330M351 274V330M366 274V330M370 274V330M385 274V330M389 274V330M404 274V330M408 274V330" stroke-width="0.7"></path>
<path d="M270 277H278M289 277H297M308 277H316M327 277H335M345 277H353M364 277H372M383 277H391M402 277H410" stroke-width="0.5"></path>
<rect x="270" y="330" width="8" height="3" stroke-width="0.5"></rect>
<rect x="289" y="330" width="8" height="3" stroke-width="0.5"></rect>
<rect x="308" y="330" width="8" height="3" stroke-width="0.5"></rect>
<rect x="327" y="330" width="8" height="3" stroke-width="0.5"></rect>
<rect x="345" y="330" width="8" height="3" stroke-width="0.5"></rect>
<rect x="364" y="330" width="8" height="3" stroke-width="0.5"></rect>
<rect x="383" y="330" width="8" height="3" stroke-width="0.5"></rect>
<rect x="402" y="330" width="8" height="3" stroke-width="0.5"></rect>
<rect x="332" y="296" width="16" height="34"></rect>
<rect x="302" y="296" width="10" height="20" stroke-width="0.5"></rect>
<rect x="368" y="296" width="10" height="20" stroke-width="0.5"></rect>
<rect x="228" y="278" width="10" height="16" stroke-width="0.5"></rect>
<rect x="244" y="278" width="10" height="16" stroke-width="0.5"></rect>
<rect x="228" y="302" width="10" height="14" stroke-width="0.5"></rect>
<rect x="244" y="302" width="10" height="14" stroke-width="0.5"></rect>
<rect x="426" y="278" width="10" height="16" stroke-width="0.5"></rect>
<rect x="442" y="278" width="10" height="16" stroke-width="0.5"></rect>
<rect x="426" y="302" width="10" height="14" stroke-width="0.5"></rect>
<rect x="442" y="302" width="10" height="14" stroke-width="0.5"></rect>
<path d="M70 274H190M70 322H190" stroke-width="0.7"></path>
<path d="M74 274V322M82 274V322M90 274V322M98 274V322M106 274V322M114 274V322M122 274V322M130 274V322M138 274V322M146 274V322M154 274V322M162 274V322M170 274V322M178 274V322M186 274V322"></path>
<path d="M490 274H610M490 322H610" stroke-width="0.7"></path>
<path d="M494 274V322M502 274V322M510 274V322M518 274V322M526 274V322M534 274V322M542 274V322M550 274V322M558 274V322M566 274V322M574 274V322M582 274V322M590 274V322M598 274V322M606 274V322"></path>
<path d="M70 262V274M190 262V274M490 262V274M610 262V274" stroke-width="0.5"></path>
<rect x="28" y="278" width="10" height="16" stroke-width="0.5"></rect>
<rect x="46" y="278" width="10" height="16" stroke-width="0.5"></rect>
<rect x="28" y="302" width="10" height="14" stroke-width="0.5"></rect>
<rect x="46" y="302" width="10" height="14" stroke-width="0.5"></rect>
<rect x="196" y="278" width="10" height="16" stroke-width="0.5"></rect>
<rect x="196" y="302" width="10" height="14" stroke-width="0.5"></rect>
<rect x="624" y="278" width="10" height="16" stroke-width="0.5"></rect>
<rect x="642" y="278" width="10" height="16" stroke-width="0.5"></rect>
<rect x="624" y="302" width="10" height="14" stroke-width="0.5"></rect>
<rect x="642" y="302" width="10" height="14" stroke-width="0.5"></rect>
<rect x="474" y="278" width="10" height="16" stroke-width="0.5"></rect>
<rect x="474" y="302" width="10" height="14" stroke-width="0.5"></rect>
<path d="M20 330H223M457 330H660" stroke-width="0.7"></path>
<path d="M20 340H223M20 348H223M457 340H660M457 348H660" stroke-width="0.4" opacity="0.7"></path>
<path d="M223 340H244M223 348H244M436 340H457M436 348H457" stroke-width="0.4" opacity="0.7"></path>
<path d="M26 356Q34 344 42 356M50 356Q58 344 66 356M74 356Q82 344 90 356M98 356Q106 344 114 356M122 356Q130 344 138 356M146 356Q154 344 162 356M170 356Q178 344 186 356M194 356Q202 344 210 356"></path>
<path d="M470 356Q478 344 486 356M494 356Q502 344 510 356M518 356Q526 344 534 356M542 356Q550 344 558 356M566 356Q574 344 582 356M590 356Q598 344 606 356M614 356Q622 344 630 356M638 356Q646 344 654 356"></path>
<path d="M286 330H394M280 334H400M274 338H406M268 342H412M262 346H418M256 350H424M250 354H430" stroke-width="0.7"></path>
<path d="M309 364H371M301 371H379M291 379H389M281 388H399M269 398H411M256 409H424M242 421H438M227 434H453"></path>
<path d="M300 366V374M380 366V374M290 380V390M390 380V390M278 396V408M402 396V408" stroke-width="0.7"></path>
<circle cx="300" cy="365" r="1.3"></circle>
<circle cx="380" cy="365" r="1.3"></circle>
<circle cx="290" cy="379" r="1.3"></circle>
<circle cx="390" cy="379" r="1.3"></circle>
<circle cx="278" cy="395" r="1.3"></circle>
<circle cx="402" cy="395" r="1.3"></circle>
</g>
<g filter="url(#glow)" stroke="#33dcc6" fill="none" stroke-width="0.8" stroke-linecap="round" opacity="0.85">
<path d="M200 382H120V414H56"></path>
<path d="M188 398H132V430H72"></path>
<path d="M480 382H560V414H624"></path>
<path d="M492 398H548V430H608"></path>
<path d="M60 358V330"></path>
<path d="M620 358V330"></path>
</g>
<g fill="#33dcc6" filter="url(#glow)">
<circle cx="200" cy="382" r="2.2"></circle>
<circle cx="56" cy="414" r="2.2"></circle>
<circle cx="188" cy="398" r="2.2"></circle>
<circle cx="72" cy="430" r="2.2"></circle>
<circle cx="480" cy="382" r="2.2"></circle>
<circle cx="624" cy="414" r="2.2"></circle>
<circle cx="492" cy="398" r="2.2"></circle>
<circle cx="608" cy="430" r="2.2"></circle>
</g>
<g fill="none" stroke="#1de2ff" stroke-width="0.9" opacity="0.8" filter="url(#glow)">
<path d="M18 40V18H40M640 18H662V40M662 430V452H640M40 452H18V430"></path>
</g>
<g fill="#1de2ff" filter="url(#glow)">
<circle cx="60" cy="326" r="2.2"></circle>
<circle cx="620" cy="326" r="2.2"></circle>
</g>

<g filter="url(#glow)">
<g fill="none" stroke="#8fe9ff" stroke-width="1.2">
</g>
</g>
</svg>